<svg xmlns="http://www.w3.org/2000/svg" height="800" width="1200" id="svg25404" version="1.1" viewBox="-62.064 -25.6225 537.888 153.735"><defs id="defs25378"><style id="style25376">.cls-1{fill:#8cc747}.cls-2{fill:#414042}</style></defs><g transform="translate(.01)" id="Layer_2"><g id="Layer_1-2"><path id="polygon25382" class="cls-1" d="M84.85 88.25v14.24l24.33-14.24V14.23L84.85 0v14.23z"/><path id="path25384" d="M210.55 62.05v-6.12q-2.16-4.17-10.29-4.17c-6.49.72-9.93 3.25-10.29 7.59.36 4.29 3.8 6.62 10.29 7q8.13 0 10.29-4.28m-29.78-31.43a43.69 43.69 0 0123.83-6.5q9.75 0 15.43 5.42t5.69 16.25V78.3h-15.17V74q-6.6 4.34-11.91 4.33-10.83 0-16.25-4.6T177 61a20.22 20.22 0 015.12-13.54q5.13-6 16.55-6 5.25 0 11.91 3.25V43.1q-.11-6-8.66-6.5-9.75 0-15.17 3.25z" class="cls-2"/><path id="polygon25386" class="cls-2" d="M287.86 43.05l15.55-18.91h18.25l-20.68 24.74 25.52 29.43h-20.55l-18.09-21.62v21.62H272.7V9.52h15.16z"/><path id="path25388" d="M355.91 39a13.05 13.05 0 00-15.17 0 8 8 0 00-3.25 6.78h21.66a8 8 0 00-3.24-6.78m-34.67 12.22q0-11.91 7.58-19.5t19.5-7.58q11.91 0 19 7.58t7 19.5v5.42H337a9.55 9.55 0 003.79 6.77 12.31 12.31 0 007.58 2.43 22.41 22.41 0 0013.54-4.33l8.67 8.67q-6 8.11-22.21 8.12-11.91 0-19.5-7.58t-7.58-19.5" class="cls-2"/><path id="path25390" d="M404.78 78.3q-9.21 0-14.62-5.15a17.43 17.43 0 01-5.42-13.26V36.43h-8.12V24.19h8.12V9.51H400v14.68h8.12v12.24H400v21.29q0 4.34 1.81 6.09a6.46 6.46 0 004.69 1.76 26.13 26.13 0 004.06-.7l3.19 10.89a16 16 0 01-8.93 2.54" class="cls-2"/><path id="path25392" d="M263.3 24.14a19 19 0 00-14.14 6v-6L234 25.71V78.3h15.16V45c2.31-5 4.74-7.11 9.21-7.52a16.34 16.34 0 017.58 1V24.26c-.86-.08-1.75-.12-2.65-.12" class="cls-2"/><path id="path25394" d="M149.53 24.14a21.93 21.93 0 00-14.48 5.44 22.09 22.09 0 00-21.46-4.32v-1.17l-15.17 1.62V78.3h15.17V46.15a7 7 0 1113.93 0V78.3h15V46.15a7 7 0 1113.94 0V78.3h15V46.15a22 22 0 00-22-22" class="cls-2"/><path id="path25396" d="M51.55 23.81a22 22 0 00-14.73 5.63 22 22 0 00-14.73-5.63v14.73a7.35 7.35 0 017.36 7.36v32.4h14.73V45.9a7.37 7.37 0 0114.73 0v32.4h14.73V45.9a22.09 22.09 0 00-22.09-22.09" class="cls-1"/><path id="rect25398" class="cls-1" d="M0 23.81h14.73v54.2H0z"/><path id="path25400" d="M14.73 12.84a7.37 7.37 0 10-7.37 7.37 7.36 7.36 0 007.37-7.37" class="cls-1"/></g></g></svg>